<?xml version="1.0" encoding="utf-8" ?>
<svg xmlns="http://www.w3.org/2000/svg" xmlns:xlink="http://www.w3.org/1999/xlink" width="24" height="24" viewBox="0 0 24 24">
	<defs>
		<clipPath id="clipPath2239791613">
			<path transform="matrix(1 0 0 1 0 0)" d="M0 0L24 0L24 24L0 24L0 0Z" fill-rule="nonzero"/>
		</clipPath>
	</defs>
	<g clip-path="url(#clipPath2239791613)">
		<path transform="matrix(1 0 0 1 0 0)" d="M0.75 6.75C0.75 7.16421 1.08579 7.5 1.5 7.5L22.5 7.5C22.9142 7.5 23.25 7.16421 23.25 6.75C23.25 6.33579 22.9142 6 22.5 6L1.5 6C1.08579 6 0.75 6.33579 0.75 6.75ZM4.5 12C4.5 12.4142 4.83579 12.75 5.25 12.75L18.75 12.75C19.1642 12.75 19.5 12.4142 19.5 12C19.5 11.5858 19.1642 11.25 18.75 11.25L5.25 11.25C4.83579 11.25 4.5 11.5858 4.5 12ZM9 17.25C9 17.6642 9.33579 18 9.75 18L14.25 18C14.6642 18 15 17.6642 15 17.25C15 16.8358 14.6642 16.5 14.25 16.5L9.75 16.5C9.33579 16.5 9 16.8358 9 17.25Z" fill-rule="evenodd" fill="rgb(31, 41, 55)"/>
	</g>
</svg>
